# xmcd
#
# Track frame offsets:
#	150
#	11530
#	20837
#	35724
#	48297
#	59925
#	72333
#	83543
#	97798
#	110413
#	121368
#	133256
#	144291
#	159043
#	171811
#
# Disc length: 2452 seconds
#
# Revision: 0
# Processed by: cddbd v1.5.2PL0 Copyright (c) Steve Scherf et al.
# Submitted via: EasyCDDAExtractor 16.0.8.2
#
DISCID=c609920f
DTITLE=Συλλογικός δίσκος - Θέλω τα ώπα μου! 2
DYEAR=2014
DGENRE=Λαϊκή
TTITLE0=Δούκισσα - Το μωρό [Τάκης Μουσαφίρης]
TTITLE1=Κοντολάζος Δημήτρης - Δεν είναι για να παίζουμε [Αλ. Χρυσοβέργης-Σπ. Γ
TTITLE1=ιατράς]
TTITLE2=Σακελλαρίου Ρίτα - Γόρδιος δεσμός [Στ. Καλλιανός-Δημ. Ιατρόπουλος]
TTITLE3=Στανίση Κατερίνα - Τώρα τι ζητάς [Τάκης Μουσαφίρης]
TTITLE4=Δούκισσα - Μελανούρι μου [Τάκης Μουσαφίρης]
TTITLE5=Σακελλαρίου Ρίτα - Ναύτης και καντηλαναύτης [Σταμ. Καλλιανός-Δημ. Ιατρ
TTITLE5=όπουλος]
TTITLE6=Μαράντη Μαίρη - Πάρε με αγκαλιά [Τάκης Μουσαφίρης]
TTITLE7=Πάλλα Βούλα - Θέλω άπονη καρδιά [Β. Πάλλα]
TTITLE8=Ταλιούρης Γιώργος - Ώπα λα λα [Λ. Μπουρνέλης-Σπ. Κεφαλόπουλος]
TTITLE9=Περπινιάδης Βαγγέλης - Νά 'ξερα ποιος πήρε τη χαρά μου [Β. Περπινιάδης
TTITLE9=Δ. Γκούτης]
TTITLE10=Στανίση Κατερίνα - Τι τα θέλεις τα λεφτά [Γ. Παπαϊωάννου-Β. Παπαδόπου
TTITLE10=λος]
TTITLE11=Δούκισσα - Σού μιλάω για μεγάλη τρέλλα [Τάκης Μουσαφίρης]
TTITLE12=Βοσκόπουλος Τόλης-Δούκισσα - Έχω μιά αρραβωνιάρα [ΖΙακωβίδης-ΝΕλευθερ
TTITLE12=ίου-ΗΛυμπερόπουλος]
TTITLE13=Περπινιάδης Βαγγέλης - Η γαλιάντρα [Μπ. Μπακάλης]
TTITLE14=Σακελλαρίου Ρίτα - Πολλά λες... [Τάκης Μουσαφίρης]
EXTD=
EXTT0=
EXTT1=
EXTT2=
EXTT3=
EXTT4=
EXTT5=
EXTT6=
EXTT7=
EXTT8=
EXTT9=
EXTT10=
EXTT11=
EXTT12=
EXTT13=
EXTT14=
PLAYORDER=
